<?xml version="1.0" encoding="UTF-8"?>

<svg version="1.2" baseProfile="tiny" width="10.16mm" height="10.16mm" viewBox="0 0 1016 1016" preserveAspectRatio="xMidYMid" fill-rule="evenodd" stroke-width="28.222" stroke-linejoin="round" xmlns="http://www.w3.org/2000/svg" xmlns:ooo="http://xml.openoffice.org/svg/export" xmlns:xlink="http://www.w3.org/1999/xlink" xml:space="preserve">
 <defs class="ClipPathGroup">
  <clipPath id="presentation_clip_path" clipPathUnits="userSpaceOnUse">
   <rect x="0" y="0" width="1016" height="1016"/>
  </clipPath>
 </defs>
 <defs class="TextShapeIndex">
  <g ooo:slide="id1" ooo:id-list="id3 id4 id5 id6 id7 id8 id9 id10"/>
 </defs>
 <defs class="EmbeddedBulletChars">
  <g id="bullet-char-template(57356)" transform="scale(0.00048828125,-0.00048828125)">
   <path d="M 580,1141 L 1163,571 580,0 -4,571 580,1141 Z"/>
  </g>
  <g id="bullet-char-template(57354)" transform="scale(0.00048828125,-0.00048828125)">
   <path d="M 8,1128 L 1137,1128 1137,0 8,0 8,1128 Z"/>
  </g>
  <g id="bullet-char-template(10146)" transform="scale(0.00048828125,-0.00048828125)">
   <path d="M 174,0 L 602,739 174,1481 1456,739 174,0 Z M 1358,739 L 309,1346 659,739 1358,739 Z"/>
  </g>
  <g id="bullet-char-template(10132)" transform="scale(0.00048828125,-0.00048828125)">
   <path d="M 2015,739 L 1276,0 717,0 1260,543 174,543 174,936 1260,936 717,1481 1274,1481 2015,739 Z"/>
  </g>
  <g id="bullet-char-template(10007)" transform="scale(0.00048828125,-0.00048828125)">
   <path d="M 0,-2 C -7,14 -16,27 -25,37 L 356,567 C 262,823 215,952 215,954 215,979 228,992 255,992 264,992 276,990 289,987 310,991 331,999 354,1012 L 381,999 492,748 772,1049 836,1024 860,1049 C 881,1039 901,1025 922,1006 886,937 835,863 770,784 769,783 710,716 594,584 L 774,223 C 774,196 753,168 711,139 L 727,119 C 717,90 699,76 672,76 641,76 570,178 457,381 L 164,-76 C 142,-110 111,-127 72,-127 30,-127 9,-110 8,-76 1,-67 -2,-52 -2,-32 -2,-23 -1,-13 0,-2 Z"/>
  </g>
  <g id="bullet-char-template(10004)" transform="scale(0.00048828125,-0.00048828125)">
   <path d="M 285,-33 C 182,-33 111,30 74,156 52,228 41,333 41,471 41,549 55,616 82,672 116,743 169,778 240,778 293,778 328,747 346,684 L 369,508 C 377,444 397,411 428,410 L 1163,1116 C 1174,1127 1196,1133 1229,1133 1271,1133 1292,1118 1292,1087 L 1292,965 C 1292,929 1282,901 1262,881 L 442,47 C 390,-6 338,-33 285,-33 Z"/>
  </g>
  <g id="bullet-char-template(9679)" transform="scale(0.00048828125,-0.00048828125)">
   <path d="M 813,0 C 632,0 489,54 383,161 276,268 223,411 223,592 223,773 276,916 383,1023 489,1130 632,1184 813,1184 992,1184 1136,1130 1245,1023 1353,916 1407,772 1407,592 1407,412 1353,268 1245,161 1136,54 992,0 813,0 Z"/>
  </g>
  <g id="bullet-char-template(8226)" transform="scale(0.00048828125,-0.00048828125)">
   <path d="M 346,457 C 273,457 209,483 155,535 101,586 74,649 74,723 74,796 101,859 155,911 209,963 273,989 346,989 419,989 480,963 531,910 582,859 608,796 608,723 608,648 583,586 532,535 482,483 420,457 346,457 Z"/>
  </g>
  <g id="bullet-char-template(8211)" transform="scale(0.00048828125,-0.00048828125)">
   <path d="M -4,459 L 1135,459 1135,606 -4,606 -4,459 Z"/>
  </g>
 </defs>
 <defs class="TextEmbeddedBitmaps"/>
 <g>
  <g id="id2" class="Master_Slide">
   <g id="bg-id2" class="Background"/>
   <g id="bo-id2" class="BackgroundObjects"/>
  </g>
 </g>
 <g class="SlideGroup">
  <g>
   <g id="id1" class="Slide" clip-path="url(#presentation_clip_path)">
    <g class="Page">
     <g class="com.sun.star.drawing.ClosedBezierShape">
      <g id="id3">
       <path fill="rgb(38,42,48)" stroke="none" d="M 230,553 C 280,553 320,513 320,463 320,415 280,375 230,375 182,375 142,415 142,463 142,513 182,553 230,553 Z M 230,408 C 262,408 286,433 286,463 286,495 262,519 230,519 200,519 175,495 175,463 175,433 200,408 230,408 Z"/>
      </g>
     </g>
     <g class="com.sun.star.drawing.ClosedBezierShape">
      <g id="id4">
       <path fill="rgb(38,42,48)" stroke="none" d="M 463,269 C 463,221 423,181 373,181 325,181 285,221 285,269 285,319 325,359 373,359 423,359 463,319 463,269 Z M 373,325 C 343,325 318,301 318,269 318,239 343,214 373,214 405,214 429,239 429,269 429,301 405,325 373,325 Z"/>
      </g>
     </g>
     <g class="com.sun.star.drawing.ClosedBezierShape">
      <g id="id5">
       <path fill="rgb(38,42,48)" stroke="none" d="M 742,269 C 742,221 702,181 652,181 604,181 564,221 564,269 564,319 604,359 652,359 702,359 742,319 742,269 Z M 652,325 C 622,325 597,301 597,269 597,239 622,214 652,214 684,214 708,239 708,269 708,301 684,325 652,325 Z"/>
      </g>
     </g>
     <g class="com.sun.star.drawing.ClosedBezierShape">
      <g id="id6">
       <path fill="rgb(38,42,48)" stroke="none" d="M 284,565 L 178,565 C 150,565 104,581 104,642 L 104,721 C 104,730 111,738 121,738 L 342,738 C 351,738 359,730 359,721 L 359,642 C 359,581 312,565 284,565 Z M 325,704 L 137,704 137,642 C 137,603 167,599 179,599 L 285,598 C 297,598 325,603 325,642 L 325,704 Z"/>
      </g>
     </g>
     <g class="com.sun.star.drawing.ClosedBezierShape">
      <g id="id7">
       <path fill="rgb(38,42,48)" stroke="none" d="M 421,463 C 421,513 461,553 509,553 559,553 599,513 599,463 599,415 559,375 509,375 461,375 421,415 421,463 Z M 509,408 C 541,408 565,433 565,463 565,495 541,519 509,519 479,519 454,495 454,463 454,433 479,408 509,408 Z"/>
      </g>
     </g>
     <g class="com.sun.star.drawing.ClosedBezierShape">
      <g id="id8">
       <path fill="rgb(38,42,48)" stroke="none" d="M 563,565 L 457,565 C 429,565 383,581 383,642 L 383,721 C 383,730 390,738 400,738 L 621,738 C 630,738 638,730 638,721 L 638,642 C 638,581 591,565 563,565 Z M 604,704 L 416,704 416,642 C 416,603 445,599 458,599 L 564,598 C 576,598 604,603 604,642 L 604,704 Z"/>
      </g>
     </g>
     <g class="com.sun.star.drawing.ClosedBezierShape">
      <g id="id9">
       <path fill="rgb(38,42,48)" stroke="none" d="M 700,463 C 700,513 740,553 788,553 838,553 878,513 878,463 878,415 838,375 788,375 740,375 700,415 700,463 Z M 788,408 C 820,408 844,433 844,463 844,495 820,519 788,519 758,519 733,495 733,463 733,433 758,408 788,408 Z"/>
      </g>
     </g>
     <g class="com.sun.star.drawing.ClosedBezierShape">
      <g id="id10">
       <path fill="rgb(38,42,48)" stroke="none" d="M 842,565 L 736,565 C 709,565 662,581 662,642 L 662,721 C 662,730 670,738 679,738 L 900,738 C 909,738 917,730 917,721 L 917,642 C 917,581 870,565 842,565 Z M 883,704 L 695,704 695,642 C 695,603 724,599 737,599 L 843,598 C 855,598 883,603 883,642 L 883,704 Z"/>
      </g>
     </g>
    </g>
   </g>
  </g>
 </g>
</svg>