<?xml version="1.0" encoding="UTF-8"?>

<svg version="1.2" baseProfile="tiny" width="203.2mm" height="203.2mm" viewBox="0 0 20320 20320" preserveAspectRatio="xMidYMid" fill-rule="evenodd" stroke-width="28.222" stroke-linejoin="round" xmlns="http://www.w3.org/2000/svg" xmlns:ooo="http://xml.openoffice.org/svg/export" xmlns:xlink="http://www.w3.org/1999/xlink" xml:space="preserve">
 <defs class="ClipPathGroup">
  <clipPath id="presentation_clip_path" clipPathUnits="userSpaceOnUse">
   <rect x="0" y="0" width="20320" height="20320"/>
  </clipPath>
 </defs>
 <defs class="TextShapeIndex">
  <g ooo:slide="id1" ooo:id-list="id3 id4 id5 id6 id7 id8 id9 id10 id11 id12 id13 id14 id15 id16 id17 id18 id19 id20 id21 id22 id23 id24 id25 id26"/>
 </defs>
 <defs class="EmbeddedBulletChars">
  <g id="bullet-char-template(57356)" transform="scale(0.00048828125,-0.00048828125)">
   <path d="M 580,1141 L 1163,571 580,0 -4,571 580,1141 Z"/>
  </g>
  <g id="bullet-char-template(57354)" transform="scale(0.00048828125,-0.00048828125)">
   <path d="M 8,1128 L 1137,1128 1137,0 8,0 8,1128 Z"/>
  </g>
  <g id="bullet-char-template(10146)" transform="scale(0.00048828125,-0.00048828125)">
   <path d="M 174,0 L 602,739 174,1481 1456,739 174,0 Z M 1358,739 L 309,1346 659,739 1358,739 Z"/>
  </g>
  <g id="bullet-char-template(10132)" transform="scale(0.00048828125,-0.00048828125)">
   <path d="M 2015,739 L 1276,0 717,0 1260,543 174,543 174,936 1260,936 717,1481 1274,1481 2015,739 Z"/>
  </g>
  <g id="bullet-char-template(10007)" transform="scale(0.00048828125,-0.00048828125)">
   <path d="M 0,-2 C -7,14 -16,27 -25,37 L 356,567 C 262,823 215,952 215,954 215,979 228,992 255,992 264,992 276,990 289,987 310,991 331,999 354,1012 L 381,999 492,748 772,1049 836,1024 860,1049 C 881,1039 901,1025 922,1006 886,937 835,863 770,784 769,783 710,716 594,584 L 774,223 C 774,196 753,168 711,139 L 727,119 C 717,90 699,76 672,76 641,76 570,178 457,381 L 164,-76 C 142,-110 111,-127 72,-127 30,-127 9,-110 8,-76 1,-67 -2,-52 -2,-32 -2,-23 -1,-13 0,-2 Z"/>
  </g>
  <g id="bullet-char-template(10004)" transform="scale(0.00048828125,-0.00048828125)">
   <path d="M 285,-33 C 182,-33 111,30 74,156 52,228 41,333 41,471 41,549 55,616 82,672 116,743 169,778 240,778 293,778 328,747 346,684 L 369,508 C 377,444 397,411 428,410 L 1163,1116 C 1174,1127 1196,1133 1229,1133 1271,1133 1292,1118 1292,1087 L 1292,965 C 1292,929 1282,901 1262,881 L 442,47 C 390,-6 338,-33 285,-33 Z"/>
  </g>
  <g id="bullet-char-template(9679)" transform="scale(0.00048828125,-0.00048828125)">
   <path d="M 813,0 C 632,0 489,54 383,161 276,268 223,411 223,592 223,773 276,916 383,1023 489,1130 632,1184 813,1184 992,1184 1136,1130 1245,1023 1353,916 1407,772 1407,592 1407,412 1353,268 1245,161 1136,54 992,0 813,0 Z"/>
  </g>
  <g id="bullet-char-template(8226)" transform="scale(0.00048828125,-0.00048828125)">
   <path d="M 346,457 C 273,457 209,483 155,535 101,586 74,649 74,723 74,796 101,859 155,911 209,963 273,989 346,989 419,989 480,963 531,910 582,859 608,796 608,723 608,648 583,586 532,535 482,483 420,457 346,457 Z"/>
  </g>
  <g id="bullet-char-template(8211)" transform="scale(0.00048828125,-0.00048828125)">
   <path d="M -4,459 L 1135,459 1135,606 -4,606 -4,459 Z"/>
  </g>
 </defs>
 <defs class="TextEmbeddedBitmaps"/>
 <g>
  <g id="id2" class="Master_Slide">
   <g id="bg-id2" class="Background"/>
   <g id="bo-id2" class="BackgroundObjects"/>
  </g>
 </g>
 <g class="SlideGroup">
  <g>
   <g id="id1" class="Slide" clip-path="url(#presentation_clip_path)">
    <g class="Page">
     <g class="com.sun.star.drawing.ClosedBezierShape">
      <g id="id3">
       <path fill="rgb(38,42,48)" stroke="none" d="M 17004,16519 L 13853,12976 13706,13097 13350,12730 C 14523,11660 15282,10138 15341,8423 15458,5046 12816,2213 9438,2096 6058,1979 3227,4622 3109,8000 2992,11379 5636,14212 9014,14328 10431,14377 11747,13937 12811,13165 L 12760,13207 13050,13631 12902,13752 15744,17547 C 16029,17894 16541,17945 16889,17662 17236,17378 17288,16866 17004,16519 Z M 9062,12931 C 6460,12841 4417,10651 4507,8048 4597,5448 6787,3404 9388,3495 11991,3585 14035,5773 13946,8375 13855,10978 11665,13021 9062,12931 Z"/>
      </g>
     </g>
     <g class="com.sun.star.drawing.ClosedBezierShape">
      <g id="id4">
       <path fill="rgb(38,42,48)" stroke="none" d="M 6292,4500 C 6210,4565 6130,4634 6052,4704 6150,4657 6233,4588 6292,4500 Z"/>
      </g>
     </g>
     <g class="com.sun.star.drawing.ClosedBezierShape">
      <g id="id5">
       <path fill="rgb(38,42,48)" stroke="none" d="M 7595,3770 C 7500,3805 7406,3845 7314,3885 L 7314,4758 7595,4758 7595,3770 Z"/>
      </g>
     </g>
     <g class="com.sun.star.drawing.ClosedBezierShape">
      <g id="id6">
       <path fill="rgb(38,42,48)" stroke="none" d="M 9378,3482 C 9345,3481 9314,3484 9281,3484 9431,3573 9501,3765 9501,4024 9501,4395 9360,4630 9063,4630 8800,4630 8629,4415 8629,4037 8629,3766 8715,3585 8848,3495 8730,3504 8612,3519 8496,3537 8399,3661 8341,3826 8341,4035 8347,4516 8629,4782 9046,4782 9521,4782 9790,4509 9790,4015 9790,3799 9733,3628 9631,3504 9547,3496 9463,3485 9378,3482 Z"/>
      </g>
     </g>
     <g class="com.sun.star.drawing.ClosedBezierShape">
      <g id="id7">
       <path fill="rgb(38,42,48)" stroke="none" d="M 10730,4783 C 11188,4783 11452,4525 11469,4059 11374,4007 11278,3955 11179,3909 11182,3945 11185,3983 11185,4022 11185,4395 11044,4630 10748,4630 10484,4630 10312,4416 10312,4035 10312,3867 10347,3735 10404,3636 10319,3613 10232,3596 10145,3578 10068,3697 10024,3849 10024,4033 10030,4517 10312,4783 10730,4783 Z"/>
      </g>
     </g>
     <g class="com.sun.star.drawing.ClosedBezierShape">
      <g id="id8">
       <path fill="rgb(38,42,48)" stroke="none" d="M 12364,4690 L 12364,4758 12433,4758 C 12410,4736 12387,4711 12364,4690 Z"/>
      </g>
     </g>
     <g class="com.sun.star.drawing.ClosedBezierShape">
      <g id="id9">
       <path fill="rgb(38,42,48)" stroke="none" d="M 5718,5962 C 5283,5962 4974,6231 4974,6720 4981,7201 5263,7468 5680,7468 6155,7468 6424,7195 6424,6698 6424,6235 6168,5962 5718,5962 Z M 5696,7316 C 5434,7316 5263,7101 5263,6723 5263,6324 5447,6114 5702,6114 6000,6114 6135,6349 6135,6708 6135,7081 5994,7316 5696,7316 Z"/>
      </g>
     </g>
     <g class="com.sun.star.drawing.ClosedBezierShape">
      <g id="id10">
       <path fill="rgb(38,42,48)" stroke="none" d="M 7401,5962 C 6966,5962 6657,6231 6657,6720 6665,7201 6946,7468 7363,7468 7838,7468 8107,7195 8107,6698 8107,6235 7851,5962 7401,5962 Z M 7379,7316 C 7117,7316 6946,7101 6946,6723 6946,6324 7130,6114 7385,6114 7683,6114 7818,6349 7818,6708 7818,7081 7677,7316 7379,7316 Z"/>
      </g>
     </g>
     <g class="com.sun.star.drawing.PolyPolygonShape">
      <g id="id11">
       <path fill="rgb(38,42,48)" stroke="none" d="M 9278,7444 L 9278,5987 9032,5987 8563,6157 8619,6307 8993,6170 8999,6170 8999,7444 9278,7444 Z"/>
      </g>
     </g>
     <g class="com.sun.star.drawing.ClosedBezierShape">
      <g id="id12">
       <path fill="rgb(38,42,48)" stroke="none" d="M 10768,5962 C 10332,5962 10024,6231 10024,6720 10030,7201 10312,7468 10730,7468 11204,7468 11473,7195 11473,6698 11473,6235 11217,5962 10768,5962 Z M 10746,7316 C 10484,7316 10312,7101 10312,6723 10312,6324 10497,6114 10752,6114 11050,6114 11185,6349 11185,6708 11185,7081 11044,7316 10746,7316 Z"/>
      </g>
     </g>
     <g class="com.sun.star.drawing.PolyPolygonShape">
      <g id="id13">
       <path fill="rgb(38,42,48)" stroke="none" d="M 11931,6157 L 11986,6307 12360,6170 12366,6170 12366,7444 12645,7444 12645,5987 12399,5987 11931,6157 Z"/>
      </g>
     </g>
     <g class="com.sun.star.drawing.ClosedBezierShape">
      <g id="id14">
       <path fill="rgb(38,42,48)" stroke="none" d="M 13873,7436 C 13859,7349 13838,7267 13819,7182 13732,7081 13682,6927 13682,6721 13682,6711 13683,6703 13683,6693 13634,6546 13575,6404 13512,6264 13434,6383 13390,6535 13390,6719 13396,7108 13582,7354 13873,7436 Z"/>
      </g>
     </g>
     <g class="com.sun.star.drawing.ClosedBezierShape">
      <g id="id15">
       <path fill="rgb(38,42,48)" stroke="none" d="M 4716,9611 C 4730,9542 4740,9468 4740,9387 4740,9146 4670,8959 4540,8832 4576,9098 4634,9360 4716,9611 Z"/>
      </g>
     </g>
     <g class="com.sun.star.drawing.ClosedBezierShape">
      <g id="id16">
       <path fill="rgb(38,42,48)" stroke="none" d="M 5718,8648 C 5283,8648 4974,8917 4974,9407 4981,9888 5263,10154 5680,10154 6155,10154 6424,9881 6424,9385 6424,8921 6168,8648 5718,8648 Z M 5696,10002 C 5434,10002 5263,9787 5263,9408 5263,9011 5447,8800 5702,8800 6000,8800 6135,9036 6135,9394 6135,9767 5994,10002 5696,10002 Z"/>
      </g>
     </g>
     <g class="com.sun.star.drawing.PolyPolygonShape">
      <g id="id17">
       <path fill="rgb(38,42,48)" stroke="none" d="M 7595,10130 L 7595,8673 7348,8673 6881,8843 6936,8993 7309,8856 7316,8856 7316,10130 7595,10130 Z"/>
      </g>
     </g>
     <g class="com.sun.star.drawing.ClosedBezierShape">
      <g id="id18">
       <path fill="rgb(38,42,48)" stroke="none" d="M 9085,8648 C 8649,8648 8341,8917 8341,9407 8347,9888 8629,10154 9046,10154 9521,10154 9790,9881 9790,9385 9790,8921 9534,8648 9085,8648 Z M 9063,10002 C 8800,10002 8629,9787 8629,9408 8629,9011 8814,8800 9068,8800 9367,8800 9501,9036 9501,9394 9501,9767 9360,10002 9063,10002 Z"/>
      </g>
     </g>
     <g class="com.sun.star.drawing.ClosedBezierShape">
      <g id="id19">
       <path fill="rgb(38,42,48)" stroke="none" d="M 10768,8648 C 10332,8648 10024,8917 10024,9407 10030,9888 10312,10154 10730,10154 11204,10154 11473,9881 11473,9385 11473,8921 11217,8648 10768,8648 Z M 10746,10002 C 10484,10002 10312,9787 10312,9408 10312,9011 10497,8800 10752,8800 11050,8800 11185,9036 11185,9394 11185,9767 11044,10002 10746,10002 Z"/>
      </g>
     </g>
     <g class="com.sun.star.drawing.PolyPolygonShape">
      <g id="id20">
       <path fill="rgb(38,42,48)" stroke="none" d="M 11931,8843 L 11986,8993 12360,8856 12366,8856 12366,10130 12645,10130 12645,8673 12399,8673 11931,8843 Z"/>
      </g>
     </g>
     <g class="com.sun.star.drawing.ClosedBezierShape">
      <g id="id21">
       <path fill="rgb(38,42,48)" stroke="none" d="M 13613,8843 L 13669,8995 13879,8919 C 13888,8857 13895,8798 13901,8738 L 13613,8843 Z"/>
      </g>
     </g>
     <g class="com.sun.star.drawing.ClosedBezierShape">
      <g id="id22">
       <path fill="rgb(38,42,48)" stroke="none" d="M 5715,11334 C 5707,11334 5700,11336 5693,11336 5749,11399 5807,11459 5867,11520 5952,11555 6015,11619 6060,11708 6175,11810 6294,11908 6418,12000 6392,11580 6142,11334 5715,11334 Z"/>
      </g>
     </g>
     <g class="com.sun.star.drawing.ClosedBezierShape">
      <g id="id23">
       <path fill="rgb(38,42,48)" stroke="none" d="M 7401,11334 C 6966,11334 6657,11602 6657,12092 6658,12118 6662,12142 6664,12167 6767,12233 6872,12295 6980,12354 6958,12279 6946,12192 6946,12095 6946,11697 7130,11486 7385,11486 7683,11486 7818,11721 7818,12082 7818,12348 7744,12543 7594,12632 7671,12661 7751,12684 7831,12709 8009,12583 8107,12368 8107,12072 8107,11607 7851,11334 7401,11334 Z"/>
      </g>
     </g>
     <g class="com.sun.star.drawing.PolyPolygonShape">
      <g id="id24">
       <path fill="rgb(38,42,48)" stroke="none" d="M 8563,11529 L 8619,11678 8993,11542 8999,11542 8999,12816 9278,12816 9278,11359 9032,11359 8563,11529 Z"/>
      </g>
     </g>
     <g class="com.sun.star.drawing.ClosedBezierShape">
      <g id="id25">
       <path fill="rgb(38,42,48)" stroke="none" d="M 10768,11334 C 10332,11334 10024,11602 10024,12092 10029,12431 10171,12661 10400,12769 10497,12743 10591,12713 10685,12681 10458,12650 10312,12442 10312,12095 10312,11697 10497,11486 10752,11486 11050,11486 11185,11721 11185,12082 11185,12277 11144,12434 11063,12539 11189,12485 11312,12428 11432,12363 11457,12277 11473,12181 11473,12072 11473,11607 11217,11334 10768,11334 Z"/>
      </g>
     </g>
     <g class="com.sun.star.drawing.ClosedBezierShape">
      <g id="id26">
       <path fill="rgb(38,42,48)" stroke="none" d="M 11931,11529 L 11986,11681 12360,11545 12366,11545 12366,11710 C 12463,11623 12556,11529 12645,11434 L 12645,11359 12399,11359 11931,11529 Z"/>
      </g>
     </g>
    </g>
   </g>
  </g>
 </g>
</svg>