<?xml version="1.0" encoding="UTF-8"?>

<svg version="1.2" baseProfile="tiny" width="254mm" height="254mm" viewBox="0 0 25400 25400" preserveAspectRatio="xMidYMid" fill-rule="evenodd" stroke-width="28.222" stroke-linejoin="round" xmlns="http://www.w3.org/2000/svg" xmlns:ooo="http://xml.openoffice.org/svg/export" xmlns:xlink="http://www.w3.org/1999/xlink" xml:space="preserve">
 <defs class="ClipPathGroup">
  <clipPath id="presentation_clip_path" clipPathUnits="userSpaceOnUse">
   <rect x="0" y="0" width="25400" height="25400"/>
  </clipPath>
 </defs>
 <defs class="TextShapeIndex">
  <g ooo:slide="id1" ooo:id-list="id3"/>
 </defs>
 <defs class="EmbeddedBulletChars">
  <g id="bullet-char-template(57356)" transform="scale(0.00048828125,-0.00048828125)">
   <path d="M 580,1141 L 1163,571 580,0 -4,571 580,1141 Z"/>
  </g>
  <g id="bullet-char-template(57354)" transform="scale(0.00048828125,-0.00048828125)">
   <path d="M 8,1128 L 1137,1128 1137,0 8,0 8,1128 Z"/>
  </g>
  <g id="bullet-char-template(10146)" transform="scale(0.00048828125,-0.00048828125)">
   <path d="M 174,0 L 602,739 174,1481 1456,739 174,0 Z M 1358,739 L 309,1346 659,739 1358,739 Z"/>
  </g>
  <g id="bullet-char-template(10132)" transform="scale(0.00048828125,-0.00048828125)">
   <path d="M 2015,739 L 1276,0 717,0 1260,543 174,543 174,936 1260,936 717,1481 1274,1481 2015,739 Z"/>
  </g>
  <g id="bullet-char-template(10007)" transform="scale(0.00048828125,-0.00048828125)">
   <path d="M 0,-2 C -7,14 -16,27 -25,37 L 356,567 C 262,823 215,952 215,954 215,979 228,992 255,992 264,992 276,990 289,987 310,991 331,999 354,1012 L 381,999 492,748 772,1049 836,1024 860,1049 C 881,1039 901,1025 922,1006 886,937 835,863 770,784 769,783 710,716 594,584 L 774,223 C 774,196 753,168 711,139 L 727,119 C 717,90 699,76 672,76 641,76 570,178 457,381 L 164,-76 C 142,-110 111,-127 72,-127 30,-127 9,-110 8,-76 1,-67 -2,-52 -2,-32 -2,-23 -1,-13 0,-2 Z"/>
  </g>
  <g id="bullet-char-template(10004)" transform="scale(0.00048828125,-0.00048828125)">
   <path d="M 285,-33 C 182,-33 111,30 74,156 52,228 41,333 41,471 41,549 55,616 82,672 116,743 169,778 240,778 293,778 328,747 346,684 L 369,508 C 377,444 397,411 428,410 L 1163,1116 C 1174,1127 1196,1133 1229,1133 1271,1133 1292,1118 1292,1087 L 1292,965 C 1292,929 1282,901 1262,881 L 442,47 C 390,-6 338,-33 285,-33 Z"/>
  </g>
  <g id="bullet-char-template(9679)" transform="scale(0.00048828125,-0.00048828125)">
   <path d="M 813,0 C 632,0 489,54 383,161 276,268 223,411 223,592 223,773 276,916 383,1023 489,1130 632,1184 813,1184 992,1184 1136,1130 1245,1023 1353,916 1407,772 1407,592 1407,412 1353,268 1245,161 1136,54 992,0 813,0 Z"/>
  </g>
  <g id="bullet-char-template(8226)" transform="scale(0.00048828125,-0.00048828125)">
   <path d="M 346,457 C 273,457 209,483 155,535 101,586 74,649 74,723 74,796 101,859 155,911 209,963 273,989 346,989 419,989 480,963 531,910 582,859 608,796 608,723 608,648 583,586 532,535 482,483 420,457 346,457 Z"/>
  </g>
  <g id="bullet-char-template(8211)" transform="scale(0.00048828125,-0.00048828125)">
   <path d="M -4,459 L 1135,459 1135,606 -4,606 -4,459 Z"/>
  </g>
 </defs>
 <defs class="TextEmbeddedBitmaps"/>
 <g>
  <g id="id2" class="Master_Slide">
   <g id="bg-id2" class="Background"/>
   <g id="bo-id2" class="BackgroundObjects"/>
  </g>
 </g>
 <g class="SlideGroup">
  <g>
   <g id="id1" class="Slide" clip-path="url(#presentation_clip_path)">
    <g class="Page">
     <g class="com.sun.star.drawing.ClosedBezierShape">
      <g id="id3">
       <path fill="rgb(38,42,48)" stroke="none" d="M 22199,14448 C 22151,14401 20114,12363 19043,11292 L 18692,10941 18197,10937 16318,10922 17318,10074 14953,7710 14106,8709 14091,6831 14086,6335 13735,5984 10577,2826 9720,1970 8865,2826 5852,5838 4996,6695 5854,7552 C 5903,7600 9011,10708 9011,10708 L 9361,11060 9857,11064 11819,11079 12094,11082 11590,11676 13351,13436 13946,12933 13948,13209 13963,15170 13967,15666 14319,16017 17478,19175 18334,20031 19190,19175 22202,16163 23060,15305 22199,14448 Z M 11828,9868 L 9867,9852 C 9867,9852 6709,6694 6708,6694 L 9720,3682 12879,6841 12895,8802 11828,9868 Z M 18334,18319 L 15175,15160 15160,13199 16225,12133 18187,12148 21346,15307 18334,18319 Z M 11963,15156 C 10809,15155 9872,14218 9871,13064 9871,12617 9508,12254 9061,12254 8613,12254 8250,12617 8250,13064 8252,15115 9912,16775 11963,16777 12411,16777 12773,16415 12773,15967 12773,15520 12412,15157 11963,15156 Z M 11977,19346 C 11975,19347 11975,19348 11975,19348 11973,19352 11971,19356 11969,19359 11971,19355 11974,19350 11977,19346 Z M 12067,18785 C 12061,18756 12053,18728 12045,18701 12045,18702 12047,18703 12047,18704 12045,18700 12044,18696 12043,18692 12034,18666 12024,18640 12012,18615 12016,18622 12019,18629 12022,18637 12019,18629 12015,18622 12012,18615 12008,18607 12006,18599 12003,18592 12004,18596 12006,18600 12007,18603 11982,18548 11950,18495 11913,18447 11885,18413 11856,18380 11824,18351 11801,18328 11776,18307 11748,18287 11735,18278 11719,18267 11704,18258 11663,18232 11618,18210 11573,18191 11483,18155 11385,18135 11283,18133 L 11273,18133 C 10060,18133 8971,17645 8175,16852 7385,16060 6897,14977 6893,13772 6901,13435 6695,13115 6360,12994 5939,12840 5475,13058 5322,13478 5254,13686 5278,13753 5273,13757 5273,17069 7958,19754 11273,19754 L 11283,19754 C 11338,19754 11392,19746 11445,19734 11470,19729 11495,19723 11520,19715 11522,19714 11524,19714 11526,19713 11526,19713 11527,19713 11528,19712 11527,19712 11527,19713 11526,19713 11532,19711 11539,19708 11545,19706 11539,19708 11534,19711 11528,19712 11553,19704 11580,19694 11613,19680 11614,19679 11614,19678 11615,19678 11613,19680 11609,19681 11605,19682 11621,19676 11635,19667 11650,19659 11645,19662 11638,19667 11631,19670 11658,19657 11686,19642 11719,19620 11712,19626 11704,19629 11696,19634 11708,19626 11721,19618 11733,19610 11728,19613 11724,19617 11719,19620 11747,19603 11776,19581 11806,19555 11801,19559 11797,19562 11791,19566 11797,19561 11803,19557 11810,19551 11813,19548 11817,19545 11821,19541 11830,19533 11838,19525 11846,19517 11855,19509 11862,19500 11870,19492 11891,19470 11909,19446 11928,19421 11945,19397 11961,19373 11975,19348 11978,19343 11979,19338 11982,19334 11994,19312 12004,19290 12015,19267 12018,19260 12022,19252 12024,19245 12024,19246 12023,19248 12022,19249 12032,19225 12040,19201 12048,19176 12047,19181 12045,19187 12043,19193 12047,19182 12049,19171 12053,19161 12060,19138 12064,19115 12069,19090 12077,19046 12082,19000 12084,18954 L 12084,18944 12084,18934 C 12082,18883 12076,18834 12067,18785 Z M 11810,19551 C 11809,19552 11807,19553 11806,19555 11807,19553 11809,19552 11810,19551 Z M 11932,19416 C 11933,19414 11934,19412 11936,19410 11933,19414 11930,19417 11928,19421 11925,19423 11924,19426 11922,19429 11925,19424 11929,19420 11932,19416 Z M 12073,19070 C 12072,19077 12069,19084 12069,19091 12064,19113 12060,19135 12055,19157 12063,19128 12069,19099 12073,19070 Z M 12053,19162 C 12053,19160 12053,19158 12055,19157 12053,19158 12053,19160 12053,19162 Z M 11977,19346 C 11989,19326 11999,19304 12010,19282 12000,19299 11991,19316 11982,19334 11981,19337 11978,19341 11977,19346 Z M 12015,19266 L 12015,19267 C 12014,19272 12011,19276 12010,19281 12011,19276 12014,19271 12015,19266 Z M 11748,18287 C 11749,18290 11752,18290 11753,18291 11752,18290 11749,18288 11748,18287 Z M 11815,18342 C 11819,18345 11821,18348 11824,18351 11826,18352 11828,18354 11830,18356 11824,18351 11821,18346 11815,18342 Z M 11908,18440 C 11909,18442 11910,18446 11913,18447 11913,18449 11916,18451 11917,18453 11913,18449 11910,18445 11908,18440 Z M 12030,18655 C 12027,18649 12024,18643 12022,18637 12026,18646 12030,18655 12034,18665 12032,18663 12031,18658 12030,18655 Z M 12043,18693 C 12040,18684 12036,18674 12034,18665 12036,18674 12040,18683 12043,18692 L 12043,18693 Z M 12067,18782 L 12067,18785 C 12067,18787 12068,18790 12069,18792 12068,18789 12067,18786 12067,18782 Z M 11520,19715 C 11516,19717 11511,19719 11507,19720 11511,19719 11516,19717 11520,19715 Z M 11416,19742 C 11440,19737 11470,19731 11507,19720 11486,19726 11465,19729 11445,19735 11436,19736 11425,19740 11416,19742 Z M 11573,18191 L 11574,18191 11573,18191 Z M 11703,18257 L 11704,18258 C 11704,18259 11705,18259 11705,18259 11704,18259 11704,18258 11703,18257 Z"/>
      </g>
     </g>
    </g>
   </g>
  </g>
 </g>
</svg>